<svg width="1600" height="900" viewBox="0 0 1600 900" fill="none" xmlns="http://www.w3.org/2000/svg">
  <rect width="1600" height="900" rx="32" fill="#08131F"/>
  <rect x="42" y="42" width="1516" height="816" rx="28" fill="url(#bg)"/>
  <circle cx="280" cy="250" r="164" fill="#3DD6C6" opacity="0.18"/>
  <circle cx="1280" cy="214" r="120" fill="#F2B24B" opacity="0.18"/>
  <rect x="118" y="178" width="1360" height="436" rx="28" fill="#0E2237" stroke="#284E68"/>
  <path d="M150 412H304L344 392L374 260L410 530L448 390L500 412H1450" stroke="#F2B24B" stroke-width="8" stroke-linecap="round" stroke-linejoin="round"/>
  <path d="M150 500H304L344 480L374 348L410 618L448 478L500 500H1450" stroke="#8FF3E7" stroke-width="8" stroke-linecap="round" stroke-linejoin="round" opacity="0.9"/>
  <path d="M150 322H304L344 302L374 170L410 440L448 300L500 322H1450" stroke="#3DD6C6" stroke-width="8" stroke-linecap="round" stroke-linejoin="round" opacity="0.85"/>
  <path d="M176 668H1420" stroke="#365C75" stroke-width="4" stroke-linecap="round"/>
  <rect x="232" y="706" width="260" height="94" rx="20" fill="#0B1A2B" stroke="#284E68"/>
  <rect x="522" y="706" width="260" height="94" rx="20" fill="#0B1A2B" stroke="#284E68"/>
  <rect x="812" y="706" width="260" height="94" rx="20" fill="#0B1A2B" stroke="#284E68"/>
  <text x="118" y="102" fill="#8FF3E7" font-family="Arial, sans-serif" font-size="26" letter-spacing="8">SIGNAL PROCESSING</text>
  <text x="118" y="820" fill="#F5F7FB" font-family="Arial, sans-serif" font-size="72" font-weight="700">ECG Signal Denoising</text>
  <text x="118" y="870" fill="#B3C6D8" font-family="Arial, sans-serif" font-size="28">Benchmarking DWT, PCA, and Kernel PCA on MIT-BIH data</text>
  <defs>
    <linearGradient id="bg" x1="72" y1="72" x2="1492" y2="834" gradientUnits="userSpaceOnUse">
      <stop stop-color="#0B1828"/>
      <stop offset="1" stop-color="#10243A"/>
    </linearGradient>
  </defs>
</svg>
